<?xml version="1.0" standalone="no"?>
<!DOCTYPE svg PUBLIC "-//W3C//DTD SVG 20010904//EN"
 "http://www.w3.org/TR/2001/REC-SVG-20010904/DTD/svg10.dtd">
<svg version="1.0" xmlns="http://www.w3.org/2000/svg"
 width="1024.000000pt" height="1024.000000pt" viewBox="0 0 1024.000000 1024.000000"
 preserveAspectRatio="xMidYMid meet">

<g transform="translate(0.000000,1024.000000) scale(0.100000,-0.100000)"
fill="#000000" stroke="none">
<path d="M4180 9355 c-214 -48 -411 -162 -506 -293 -22 -30 -43 -60 -49 -67
-8 -12 -21 -11 -75 2 -48 11 -97 14 -185 10 -105 -4 -132 -9 -218 -40 -219
-79 -362 -215 -448 -426 -25 -62 -38 -81 -52 -81 -38 0 -144 -32 -212 -65
-153 -73 -275 -195 -350 -350 -53 -111 -69 -177 -67 -279 l1 -79 -70 -75 c-77
-83 -143 -204 -176 -322 -25 -93 -25 -387 1 -479 42 -154 143 -321 274 -454
129 -131 239 -200 424 -265 242 -86 506 -79 689 17 l57 30 -10 -42 c-6 -23 -8
-94 -5 -157 6 -149 44 -269 132 -416 80 -132 131 -193 230 -271 304 -240 732
-289 1068 -122 130 64 318 217 363 296 14 23 29 43 33 43 4 0 18 -19 31 -42
43 -79 198 -302 262 -379 63 -75 356 -384 663 -696 188 -192 204 -202 317
-185 75 11 233 54 245 66 4 4 2 19 -4 34 -6 15 -28 68 -49 117 -32 78 -96 276
-90 282 1 1 24 -5 51 -13 131 -39 333 -25 520 37 89 30 274 124 383 197 168
110 372 391 440 602 33 105 45 178 46 286 l1 101 46 21 c107 50 244 213 309
368 72 174 130 453 130 628 0 90 -28 238 -62 333 -56 155 -173 320 -283 398
l-65 47 0 86 c-1 230 -71 390 -230 529 -118 103 -207 151 -319 174 l-61 13
-45 92 c-101 209 -260 345 -485 416 -64 20 -96 23 -220 23 -118 0 -154 -3
-194 -19 l-49 -19 -21 29 c-94 130 -204 225 -339 292 -110 54 -181 72 -313 79
-226 12 -461 -73 -628 -227 l-46 -42 -57 50 c-99 85 -216 152 -333 192 -86 29
-303 37 -400 15z m1725 -279 c61 -26 75 -100 29 -155 -36 -43 -86 -43 -131 1
-45 43 -46 96 -4 139 33 32 56 36 106 15z m-1812 -44 c29 -26 45 -66 31 -79
-16 -16 -34 -18 -66 -10 -40 11 -62 63 -49 115 2 9 68 -12 84 -26z m560 -25
c55 -42 87 -128 73 -200 -8 -43 -61 -124 -87 -132 -17 -6 -19 -16 -19 -85 0
-79 0 -80 36 -112 95 -86 99 -229 9 -313 l-34 -33 -5 -444 c-3 -243 -2 -447 2
-453 4 -6 57 -9 135 -7 l127 3 0 818 0 819 38 -14 c20 -7 49 -13 65 -14 l27 0
0 -1507 c-1 -830 -5 -1528 -10 -1553 -4 -25 -16 -49 -26 -55 -9 -5 -35 -25
-56 -44 l-38 -33 0 488 c0 269 -3 505 -6 524 l-6 35 -127 -3 -128 -3 -6 -277
c-4 -152 -7 -361 -7 -463 0 -283 -10 -428 -29 -439 -24 -12 -69 0 -74 20 -5
18 -26 19 -398 22 -393 3 -394 3 -432 26 -49 31 -114 123 -131 187 -21 74 -29
410 -12 467 17 57 223 358 244 358 13 0 29 -15 41 -37 23 -45 13 -75 -64 -187
-41 -59 -79 -122 -84 -140 -6 -17 -12 -125 -13 -239 l-3 -208 52 -49 52 -50
355 0 355 0 12 22 c9 17 13 149 13 498 l1 475 -197 0 -196 0 -5 -30 c-2 -16
-2 -94 1 -172 5 -137 6 -142 28 -147 64 -17 134 -122 134 -205 0 -213 -241
-312 -379 -156 -60 68 -74 133 -49 217 14 46 77 122 121 144 l30 16 -7 166
c-4 91 -8 167 -9 168 -1 1 -66 4 -143 6 l-142 3 -12 -34 c-7 -18 -29 -50 -49
-70 -140 -140 -384 -4 -347 192 3 19 20 55 37 80 79 119 265 120 337 2 l27
-44 413 -1 412 0 0 145 0 145 -255 0 -254 0 -17 -36 c-35 -73 -127 -111 -207
-85 -72 24 -137 130 -121 198 27 111 111 167 215 144 32 -7 55 -21 84 -53 l40
-43 255 3 255 3 0 105 0 104 -30 1 c-16 1 -475 1 -1018 0 l-989 -2 -79 -87
c-63 -68 -79 -91 -73 -107 18 -53 15 -110 -8 -154 -82 -158 -327 -63 -294 114
13 67 98 135 168 135 29 0 45 13 133 109 68 74 109 110 129 115 16 3 345 6
732 6 l704 0 1 103 c0 56 3 157 5 224 l4 122 -39 21 c-124 63 -145 233 -42
343 39 43 80 60 142 60 141 0 244 -142 200 -276 -18 -52 -67 -115 -105 -134
l-33 -15 -2 -224 -1 -223 251 -3 252 -3 -7 179 c-3 99 -6 228 -6 287 l0 109
-34 14 c-66 28 -106 122 -86 206 13 52 60 117 96 131 22 8 24 14 24 88 0 78 0
79 -28 84 -41 8 -90 64 -107 120 -24 81 8 179 75 229 57 42 165 39 223 -5z
m828 7 c40 -20 87 -79 99 -124 30 -110 -51 -250 -144 -250 -34 0 -34 -4 -39
-382 -4 -288 -3 -318 12 -319 9 -1 103 -4 209 -8 l192 -6 0 297 0 296 -35 35
c-29 29 -35 42 -35 76 0 72 54 141 120 156 35 8 102 -25 132 -65 44 -61 31
-144 -28 -179 l-34 -20 0 -131 0 -131 263 3 c287 4 303 7 362 68 26 27 27 31
16 74 -25 102 -4 185 62 243 95 84 246 58 317 -54 39 -61 47 -119 25 -185 -23
-71 -47 -102 -99 -127 l-44 -22 5 -167 4 -167 229 -3 228 -2 7 30 c8 38 48 86
87 106 119 62 269 -55 244 -188 -9 -47 -41 -95 -78 -119 -51 -31 -139 -23
-197 19 l-44 32 -849 0 -849 0 3 -1155 3 -1155 988 0 988 0 -6 -21 c-4 -11
-16 -41 -26 -65 l-20 -44 -677 -2 c-372 -1 -845 0 -1049 1 -336 4 -373 2 -379
-12 -8 -22 26 -75 81 -126 l45 -41 822 -1 c453 -1 866 -4 919 -8 l97 -6 -52
-58 c-29 -32 -61 -58 -72 -58 -10 -1 -406 0 -879 0 l-860 1 -79 108 c-44 59
-104 140 -134 181 -30 41 -59 90 -63 110 -5 20 -14 205 -20 411 -11 402 2
1727 21 1970 5 69 12 279 16 467 l6 342 -31 27 c-96 80 -95 236 3 321 20 18
49 35 64 39 15 3 32 7 37 9 17 6 89 -7 116 -21z m-1384 -189 c33 -33 35 -39
31 -86 -7 -72 -50 -123 -107 -127 -39 -3 -46 1 -87 41 -38 38 -44 50 -44 86 0
33 7 49 36 81 33 36 41 40 86 40 44 0 54 -4 85 -35z m-751 -176 c120 -87 128
-250 16 -351 -23 -21 -49 -38 -57 -38 -13 0 -15 -24 -15 -159 0 -87 3 -172 6
-189 l6 -30 164 6 c124 4 167 2 179 -8 21 -18 21 -106 -1 -114 -9 -3 -249 -6
-535 -6 l-519 0 0 104 c0 100 -1 104 -25 120 -41 27 -65 75 -65 129 0 58 17
94 66 137 34 29 42 32 86 28 62 -6 94 -35 114 -104 20 -69 0 -143 -54 -200
-16 -17 -19 -28 -13 -55 l7 -34 234 -3 235 -2 -3 188 -3 187 -44 24 c-50 27
-91 81 -104 142 -30 134 91 277 225 267 39 -3 64 -13 100 -39z m979 -734 c19
-18 25 -35 25 -69 0 -56 -32 -86 -91 -86 -34 0 -42 5 -59 33 -24 39 -26 104
-3 129 25 28 97 25 128 -7z m3042 -394 l73 -64 0 -204 c0 -117 4 -203 9 -203
20 0 75 -56 92 -95 25 -53 24 -109 -2 -162 -17 -35 -32 -49 -73 -69 -68 -33
-110 -33 -170 1 -38 22 -54 39 -72 79 -13 28 -24 64 -24 79 0 59 50 139 98
158 21 8 22 14 22 112 0 57 3 145 6 195 l7 90 -39 11 c-22 6 -129 11 -246 11
l-208 0 0 -88 c0 -86 1 -89 31 -118 35 -33 69 -94 69 -124 0 -28 -43 -110 -69
-134 -14 -12 -41 -21 -76 -24 -47 -4 -61 -1 -94 21 -39 26 -71 78 -71 117 0
55 23 111 61 145 l39 35 0 90 0 90 -166 0 c-110 0 -163 -3 -159 -10 4 -6 6
-260 6 -565 l0 -555 24 -53 c73 -155 -29 -309 -172 -261 -75 26 -143 133 -127
201 17 70 67 135 122 158 l32 14 0 541 c0 601 2 624 54 640 18 5 224 8 491 7
l459 -2 73 -64z m-1391 23 c52 -25 78 -68 82 -139 4 -78 -26 -142 -80 -168
l-36 -18 0 -695 c1 -382 4 -696 7 -698 3 -2 182 -7 396 -11 l390 -7 -3 279 -3
278 -48 32 c-114 74 -133 228 -43 334 43 50 85 69 152 69 134 0 228 -103 218
-237 -5 -75 -40 -128 -113 -172 l-55 -33 0 -247 c1 -135 3 -261 6 -278 l6 -33
410 0 410 0 -6 -37 c-14 -79 -2 -73 -164 -74 -1862 -12 -1713 -17 -1693 58 7
25 11 282 11 760 l0 721 -35 21 c-39 23 -74 87 -75 134 0 62 54 145 115 173
36 17 101 11 151 -12z m-2602 -273 c17 -18 30 -44 33 -70 5 -36 2 -44 -30 -76
-19 -19 -42 -35 -51 -35 -25 0 -74 28 -85 48 -9 17 -18 17 -88 10 -43 -5 -171
-7 -286 -6 l-207 3 0 -66 c0 -65 0 -66 37 -90 130 -84 133 -284 5 -373 -96
-68 -243 -35 -306 67 -36 58 -43 118 -23 188 19 64 74 123 133 144 l39 13 5
110 c3 61 9 114 13 119 5 4 157 6 337 4 323 -3 329 -3 356 18 39 30 84 27 118
-8z m4534 5 c59 -31 102 -101 102 -168 0 -50 -26 -100 -76 -143 l-35 -30 -9
-130 c-16 -218 -16 -220 24 -245 19 -11 45 -37 57 -56 58 -95 -39 -240 -148
-219 -44 8 -99 57 -113 101 -18 54 3 128 46 160 l34 26 0 194 c0 158 -3 194
-14 194 -7 0 -32 21 -56 46 l-42 46 4 73 c4 80 19 106 83 146 36 22 105 25
143 5z m-4816 -342 c11 -7 10 -83 -3 -227 -12 -117 -11 -121 9 -137 37 -31 72
-91 72 -127 0 -105 -87 -171 -190 -143 -32 9 -44 19 -62 53 -43 84 -25 162 48
212 l29 20 -13 140 c-18 200 -9 232 62 221 21 -4 43 -9 48 -12z m-893 -71 c19
-17 33 -43 37 -65 6 -34 3 -41 -29 -73 -21 -21 -45 -35 -60 -35 -35 0 -72 33
-91 81 -15 36 -15 44 -2 64 16 24 71 54 98 55 10 0 31 -12 47 -27z m5258 -444
c167 -81 163 -332 -7 -419 -95 -48 -215 -6 -281 98 -35 56 -39 134 -10 197 22
49 83 113 125 131 47 20 123 17 173 -7z m-3457 -1059 c-25 -4 41 -6 145 -4
145 2 174 1 121 -6 -39 -5 -74 -6 -80 -3 -5 3 -6 1 -2 -5 4 -7 16 -12 27 -12
10 0 19 -7 19 -15 0 -8 -5 -15 -11 -15 -16 0 -40 -27 -37 -42 2 -7 19 -16 38
-19 31 -6 30 -6 -15 -7 -94 -2 -260 16 -309 33 -27 9 -64 27 -82 38 l-33 22
42 12 42 13 -55 -4 c-30 -2 -46 -1 -35 2 l20 5 -20 8 c-11 4 44 7 125 7 94 -1
129 -3 100 -8z m320 -136 c0 -2 -15 -4 -32 -4 -23 0 -29 3 -19 9 12 8 51 4 51
-5z m1604 -413 c34 -21 98 -57 141 -79 94 -47 111 -64 157 -157 19 -38 49 -97
65 -130 44 -85 49 -105 26 -105 -22 0 -76 32 -111 67 -15 14 -21 22 -14 19 6
-4 12 -4 12 -1 0 10 -47 54 -53 49 -2 -2 -10 2 -17 11 -8 9 -12 41 -11 85 1
63 -1 70 -18 70 -11 0 -26 8 -33 18 -7 10 -33 24 -58 32 -25 8 -53 23 -62 32
-10 10 -29 20 -42 24 -14 3 -28 15 -31 25 -4 10 -11 19 -16 19 -5 0 -8 6 -6
13 1 6 -4 11 -10 10 -15 -3 -15 -1 -7 21 9 23 20 20 88 -23z"/>
<path d="M4492 8915 c-33 -28 -44 -65 -31 -104 11 -31 34 -47 81 -56 31 -6 38
-3 61 25 77 91 -21 211 -111 135z"/>
<path d="M4522 8404 c-20 -8 -38 -27 -49 -48 -16 -34 -16 -38 0 -72 18 -37 66
-65 98 -57 29 8 59 48 66 87 5 31 1 41 -22 66 -34 36 -54 41 -93 24z"/>
<path d="M3884 8321 c-41 -25 -60 -72 -48 -118 11 -44 47 -73 101 -80 36 -5
44 -2 77 31 29 29 36 44 36 74 0 44 -20 76 -60 97 -39 20 -69 19 -106 -4z"/>
<path d="M3772 7213 c-33 -28 -37 -66 -10 -96 33 -37 68 -43 101 -17 37 29 37
80 1 109 -33 26 -65 27 -92 4z"/>
<path d="M2145 7196 c-29 -29 -31 -39 -9 -60 21 -22 61 -20 73 2 13 25 -1 76
-22 80 -9 2 -28 -8 -42 -22z"/>
<path d="M4638 7103 c-16 -4 -18 -20 -18 -149 l0 -144 135 0 135 0 0 150 0
150 -117 -1 c-65 -1 -126 -3 -135 -6z"/>
<path d="M3420 6827 c-70 -55 -65 -143 10 -182 76 -39 150 7 150 92 0 63 -40
103 -102 103 -24 0 -50 -6 -58 -13z"/>
<path d="M3964 6196 c-62 -62 -40 -145 46 -180 36 -14 44 -14 75 -2 60 25 92
104 64 159 -20 39 -51 57 -102 57 -42 0 -54 -5 -83 -34z"/>
<path d="M5322 8908 c-11 -13 -26 -36 -32 -52 -14 -37 8 -72 62 -99 33 -16 40
-17 71 -3 41 17 57 41 57 86 0 75 -108 121 -158 68z"/>
<path d="M6723 8570 c-72 -44 -82 -119 -23 -172 58 -53 144 -29 176 49 12 28
12 38 0 66 -17 42 -61 77 -95 77 -14 0 -40 -9 -58 -20z"/>
<path d="M6596 8216 c-90 -70 -120 -76 -406 -76 l-247 0 -7 -80 c-3 -44 -4
-91 0 -105 l6 -25 298 0 c163 0 337 -3 387 -6 l90 -7 5 54 c2 30 2 106 -1 169
l-6 115 -30 3 c-23 2 -44 -8 -89 -42z"/>
<path d="M7426 7948 c-31 -43 -12 -106 32 -109 48 -4 67 10 77 58 5 25 2 36
-14 52 -28 28 -75 27 -95 -1z"/>
<path d="M5358 7523 c-3 -594 2 -1843 8 -1933 4 -52 11 -101 16 -107 13 -16
104 -17 114 -2 3 6 3 530 -1 1165 l-8 1154 -63 0 -64 0 -2 -277z"/>
<path d="M3154 8546 c-28 -28 -34 -42 -34 -76 0 -52 13 -76 50 -95 44 -23 94
-19 129 11 58 48 47 132 -22 174 -48 30 -83 26 -123 -14z"/>
<path d="M6742 7174 c-26 -18 -28 -41 -6 -72 30 -43 104 -20 104 33 0 25 -33
55 -60 55 -9 0 -26 -7 -38 -16z"/>
<path d="M7322 6927 c-29 -31 -28 -63 3 -91 53 -50 106 -41 132 21 13 33 13
38 -5 62 -27 37 -98 42 -130 8z"/>
<path d="M6290 6283 c-53 -20 -70 -98 -28 -127 52 -37 108 -8 108 55 0 60 -33
89 -80 72z"/>
<path d="M5830 7452 c-38 -38 -38 -66 -1 -102 38 -38 74 -47 107 -26 74 49 50
131 -43 151 -28 6 -38 2 -63 -23z"/>
<path d="M6719 6661 c-31 -31 -39 -46 -39 -76 0 -30 8 -45 39 -76 52 -52 98
-54 146 -6 19 19 37 45 40 59 9 37 -19 94 -57 118 -51 31 -84 26 -129 -19z"/>
<path d="M2545 6913 c-54 -13 -93 -85 -75 -139 33 -100 168 -116 215 -24 8 16
15 39 15 52 0 36 -37 88 -75 104 -35 14 -45 15 -80 7z"/>
<path d="M7787 7172 c-38 -42 -11 -113 48 -128 67 -17 107 103 46 135 -30 17
-76 13 -94 -7z"/>
<path d="M7291 6295 c-42 -36 -56 -83 -37 -128 19 -46 54 -68 111 -70 41 -2
50 2 76 30 51 58 51 113 -1 164 -39 39 -105 41 -149 4z"/>
<path d="M8305 5049 c-22 -12 -47 -27 -55 -34 -8 -7 -112 -70 -230 -140 -118
-70 -291 -176 -385 -235 -93 -59 -282 -175 -420 -257 -227 -137 -579 -350
-920 -560 -71 -44 -180 -113 -242 -154 -61 -41 -168 -110 -238 -154 -69 -44
-169 -107 -220 -140 -52 -33 -158 -98 -235 -145 -77 -47 -177 -109 -222 -138
-110 -71 -196 -114 -210 -106 -7 4 -8 3 -4 -4 4 -7 3 -12 -2 -12 -5 0 -30 -16
-56 -36 l-47 -36 -67 59 c-86 75 -204 184 -319 295 -51 48 -95 88 -99 88 -8 0
-113 -92 -244 -213 -52 -49 -137 -123 -188 -165 -51 -42 -95 -85 -98 -95 -3
-11 4 -33 19 -55 35 -50 450 -469 617 -622 126 -115 234 -226 306 -313 l30
-37 57 48 c31 26 107 91 169 144 62 54 174 148 249 210 171 143 436 364 469
392 59 50 268 226 338 284 68 55 187 137 202 137 9 0 60 42 60 49 0 6 21 26
156 149 28 26 152 128 275 227 614 496 871 701 957 768 122 95 555 455 655
546 43 39 87 85 97 102 38 60 21 128 -40 159 -39 20 -68 19 -115 -6z m-496
-512 c-9 -7 -63 -49 -120 -94 -158 -124 -315 -247 -404 -315 -44 -34 -124 -99
-177 -144 -54 -45 -165 -134 -247 -198 -83 -64 -153 -121 -157 -127 -3 -6 -72
-63 -153 -127 -80 -63 -186 -150 -236 -192 -49 -42 -142 -117 -205 -165 -63
-49 -171 -136 -239 -194 -69 -58 -195 -164 -281 -236 -86 -71 -286 -238 -444
-370 -159 -132 -301 -251 -317 -264 l-29 -23 -137 134 c-76 74 -228 220 -338
325 -277 265 -288 277 -281 301 4 12 67 78 141 147 l135 127 147 -138 c82 -76
187 -177 234 -225 l86 -87 104 68 c57 37 221 139 364 227 143 88 295 182 337
209 42 27 131 83 198 124 121 75 253 157 582 363 216 135 419 260 803 492 281
170 358 218 560 345 76 47 109 64 74 37z"/>
<path d="M4785 4490 c-358 -41 -672 -167 -920 -370 -178 -145 -336 -345 -439
-555 -119 -241 -166 -427 -173 -685 -9 -311 40 -527 183 -810 134 -265 323
-477 575 -648 147 -99 445 -215 634 -247 145 -25 387 -23 535 3 140 25 356 98
469 158 177 94 280 170 421 313 252 253 391 515 461 871 20 99 23 146 24 345
0 216 -5 285 -23 285 -9 -1 -139 -127 -292 -285 -69 -72 -139 -140 -155 -153
-17 -12 -93 -84 -170 -159 -77 -75 -229 -222 -338 -327 -109 -105 -284 -277
-390 -382 -106 -104 -200 -193 -210 -197 -9 -3 -17 -15 -17 -24 0 -10 -8 -29
-17 -43 -13 -18 -18 -52 -21 -137 l-5 -113 -26 0 c-53 1 -213 20 -287 36 -192
39 -421 143 -582 264 -182 136 -351 336 -439 518 -166 346 -203 700 -112 1064
62 244 177 452 354 637 240 251 494 389 840 457 117 23 379 23 515 -1 148 -25
324 -88 453 -161 125 -72 320 -218 354 -266 21 -30 21 -33 6 -50 -20 -22 -19
-22 38 0 26 9 70 39 99 65 l53 48 -39 40 c-52 55 -293 236 -382 288 -154 90
-406 182 -567 206 -130 20 -309 26 -410 15z m1582 -1797 c-3 -10 -5 -4 -5 12
0 17 2 24 5 18 2 -7 2 -21 0 -30z m-6 -64 c-5 -13 -10 -19 -10 -12 -1 15 10
45 15 40 3 -2 0 -15 -5 -28z m-521 -219 c0 -5 -5 -10 -11 -10 -5 0 -7 5 -4 10
3 6 8 10 11 10 2 0 4 -4 4 -10z m460 -60 c0 -5 -2 -10 -4 -10 -3 0 -8 5 -11
10 -3 6 -1 10 4 10 6 0 11 -4 11 -10z m-13 -42 c-3 -8 -6 -5 -6 6 -1 11 2 17
5 13 3 -3 4 -12 1 -19z m-20 -50 c-3 -8 -6 -5 -6 6 -1 11 2 17 5 13 3 -3 4
-12 1 -19z"/>
<path d="M4836 1757 c3 -10 9 -15 12 -12 3 3 0 11 -7 18 -10 9 -11 8 -5 -6z"/>
</g>
</svg>
